<svg xmlns="http://www.w3.org/2000/svg" width="30" height="30" viewBox="0 0 30 30" fill="none">
<path d="M0.0015564 3.33389C0.0015564 1.49304 1.49386 0.000732422 3.33472 0.000732422H26.6668C28.5077 0.000732422 30 1.49304 30 3.33389V26.6663C30 28.507 28.5078 29.9992 26.6672 29.9992H3.33438C1.49371 29.9992 0.0015564 28.507 0.0015564 26.6663V3.33389Z" fill="#F95B5F"/>
<path fill-rule="evenodd" clip-rule="evenodd" d="M26.0225 26.1994C25.4902 23.5137 23.4003 21.713 19.4807 21.713C18.2429 21.713 16.7307 21.741 15.1688 21.77C13.5006 21.801 11.7758 21.833 10.2679 21.833C8.62795 21.833 8.10798 21.553 8.10798 20.793C8.10798 20.313 8.53422 19.1998 9.25418 19.0798C10.4941 19.3997 12.014 19.5597 13.6939 19.5597C19.8936 19.5597 23.6934 17.1999 23.6934 12.8801C23.6934 11.1202 23.0135 9.64025 21.8535 8.52031L22.2135 8.28032C22.6535 9.04029 23.4534 9.44026 24.4134 9.44026C26.0533 9.44026 26.9733 8.44032 26.9733 6.64041C26.9733 4.9605 25.6533 3.80056 23.7734 3.80056C21.8135 3.80056 20.4136 5.00049 19.7736 7.16038C18.2137 6.44042 16.2538 6.04044 14.0539 6.04044C8.13424 6.04044 4.05445 8.8003 4.05445 12.9201C4.05445 15.2 4.9744 16.8799 6.77431 17.9998C4.45443 18.8398 3.02824 21.233 3.02824 23.2329C3.02824 24.426 3.4188 25.4238 4.19316 26.1994H26.0225ZM16.1738 13.2801C16.1738 15.32 15.4139 16.1999 13.7739 16.1999C12.214 16.1999 11.4541 15.28 11.4541 13.3601V12.4801C11.4541 10.4802 12.214 9.48026 13.8539 9.48026C15.4139 9.48026 16.1738 10.4002 16.1738 12.4401V13.2801Z" fill="white"/>
</svg>