<svg width="256" height="256" viewBox="0 0 256 256" fill="none" xmlns="http://www.w3.org/2000/svg">
<rect width="256" height="256" fill="white"/>
<g clip-path="url(#clip0_38_46)">
<path d="M181.186 103.572C181.186 111.196 181.46 118.774 181.095 126.399C180.73 135.073 183.378 142.514 188.856 149.088C189.495 149.865 190.089 150.641 190.637 151.462C192.6 154.43 192.235 156.484 189.541 158.767C183.789 163.606 178.082 168.491 172.33 173.331C168.906 176.207 166.76 176.161 163.29 173.331C158.634 169.541 154.981 164.885 151.74 159.908C150.964 158.721 150.553 158.767 149.594 159.68C143.842 165.296 137.77 170.5 130.054 173.102C118.139 177.165 106.041 177.805 94.0793 173.559C82.5746 169.45 75.6809 160.958 73.1243 149.134C70.2938 135.94 71.7547 123.385 79.8811 112.2C86.0443 103.754 94.5815 98.7782 104.397 95.7194C114.532 92.6149 124.987 91.4279 135.487 90.3779C138.455 90.0583 141.377 89.7844 144.344 89.5105C145.074 89.4648 145.714 89.3735 145.668 88.4148C145.577 83.5755 146.079 78.6449 144.937 73.8969C143.477 67.825 139.505 64.264 133.433 62.9401C129.096 61.9813 124.804 62.2552 120.604 63.6705C114.213 65.8619 110.241 70.2903 108.643 76.8644C107.775 80.4711 106.086 81.7494 102.571 81.3841C95.0837 80.608 87.5965 79.8319 80.155 79.0558C77.0962 78.7362 75.4983 76.4079 76.1375 73.4404C80.018 54.4941 92.4358 43.8568 110.332 38.9719C124.074 35.2283 137.998 35 151.786 38.8806C162.879 41.985 172.193 47.4635 177.397 58.329C180.365 64.4923 181.05 71.1577 181.141 77.8231C181.232 86.3604 181.141 94.9889 181.186 103.572ZM145.668 117.816C145.668 115.533 145.577 113.25 145.714 110.968C145.805 109.552 145.303 109.05 143.887 109.187C140.418 109.507 136.902 109.552 133.433 110.009C127.361 110.785 121.426 112.292 116.495 116.127C109.328 121.742 107.821 129.412 109.008 138.04C110.423 148.175 119.463 153.791 129.141 150.412C135.715 148.13 139.733 143.29 142.518 137.219C145.44 131.055 145.668 124.436 145.668 117.816Z" fill="#050606"/>
<path d="M128.776 220.856C93.9424 220.628 62.6697 211.68 34.4101 192.825C28.6577 188.99 23.1793 184.79 17.9747 180.179C17.5182 179.768 17.0617 179.357 16.6964 178.855C16.1942 178.17 15.829 177.348 16.4225 176.526C17.016 175.613 18.0204 175.522 18.8878 175.933C20.8966 176.891 22.814 177.942 24.7771 178.946C42.7647 188.442 61.7109 195.29 81.5703 199.627C99.5578 203.553 117.728 205.379 136.172 204.877C162.514 204.147 187.898 198.851 212.322 189.035C213.509 188.533 214.742 188.031 215.975 187.757C217.709 187.437 219.444 187.666 220.22 189.538C220.951 191.272 219.992 192.642 218.714 193.738C217.801 194.514 216.751 195.153 215.701 195.838C199.95 206.064 182.693 212.638 164.432 216.701C152.379 219.441 140.144 220.765 128.776 220.856Z" fill="#F6A61F"/>
<path d="M216.659 180.179C211.409 180.133 206.205 180.818 201 181.366C199.996 181.457 198.855 181.731 198.398 180.635C197.85 179.402 198.9 178.672 199.768 178.078C206.25 173.787 213.509 172.098 221.133 171.687C226.384 171.367 231.588 171.596 236.701 173.148C239.03 173.833 240.171 175.202 240.125 177.576C239.851 190.268 235.606 201.316 226.429 210.31C226.11 210.63 225.745 210.903 225.379 211.177C224.558 211.771 223.553 212.319 222.686 211.588C221.864 210.903 222.32 209.899 222.686 209.077C225.379 202.366 228.118 195.701 229.442 188.533C229.625 187.62 229.671 186.707 229.716 185.84C229.762 182.872 228.712 181.594 225.79 180.863C222.731 180.042 219.673 180.179 216.659 180.179Z" fill="#F6A61F"/>
</g>
<defs>
<clipPath id="clip0_38_46">
<rect width="256" height="185.856" fill="white" transform="translate(0 35)"/>
</clipPath>
</defs>
</svg>
